<svg aria-hidden="true" style="position: absolute; width: 0; height: 0; overflow: hidden;" version="1.1" xmlns="http://www.w3.org/2000/svg" xmlns:xlink="http://www.w3.org/1999/xlink">
<defs>
<symbol id="icon-sale" viewBox="0 0 32 32">
<path d="M28 31h-24c-1.657 0-3-1.344-3-3v-14c0-1.657 1.343-3 3-3h2l8.493-6.518c-0.038-0.155-0.064-0.315-0.064-0.482 0-1.104 0.896-2 2-2s1.999 0.896 1.999 2c0 0.359-0.102 0.692-0.269 0.984l7.841 6.016h2c1.656 0 3 1.343 3 3v14c0 1.656-1.344 3-3 3zM17.071 24.583h4.031v-0.758h-3.18v-5.688h-0.852v6.446zM11.303 24.583l0.706-1.953h2.708l0.742 1.953h0.972l-2.628-6.445h-0.924l-2.478 6.445h0.902zM5.342 18.894c-0.184 0.284-0.276 0.589-0.276 0.914 0 0.297 0.075 0.564 0.226 0.804s0.38 0.439 0.687 0.602c0.236 0.126 0.649 0.26 1.239 0.402s0.971 0.247 1.144 0.314c0.269 0.104 0.462 0.229 0.581 0.38s0.179 0.326 0.179 0.528c0 0.198-0.061 0.383-0.182 0.552s-0.306 0.302-0.555 0.399c-0.248 0.098-0.534 0.146-0.858 0.146-0.365 0-0.693-0.063-0.985-0.192-0.293-0.127-0.508-0.295-0.646-0.503s-0.228-0.474-0.266-0.797l-0.805 0.070c0.012 0.431 0.13 0.816 0.354 1.157s0.532 0.598 0.925 0.768c0.394 0.17 0.881 0.255 1.463 0.255 0.458 0 0.871-0.084 1.238-0.253 0.367-0.168 0.648-0.402 0.844-0.706s0.294-0.625 0.294-0.968c0-0.345-0.090-0.649-0.269-0.914s-0.456-0.484-0.832-0.656c-0.259-0.117-0.733-0.254-1.423-0.41-0.691-0.157-1.118-0.311-1.281-0.461-0.167-0.148-0.25-0.339-0.25-0.57 0-0.268 0.118-0.495 0.353-0.684s0.609-0.284 1.123-0.284c0.494 0 0.867 0.104 1.119 0.31 0.253 0.207 0.4 0.513 0.444 0.917l0.82-0.062c-0.015-0.378-0.12-0.716-0.315-1.014s-0.476-0.524-0.84-0.678-0.784-0.23-1.261-0.23c-0.433 0-0.826 0.073-1.18 0.22-0.356 0.146-0.625 0.36-0.809 0.644zM17.678 5.55c-0.344 0.277-0.774 0.45-1.249 0.45-0.662 0-1.244-0.325-1.608-0.821l-7.821 5.821h18l-7.322-5.45zM26.936 23.825h-3.953v-2.195h3.562v-0.758h-3.562v-1.977h3.805v-0.758h-4.656v6.445h4.805v-0.757zM13.314 18.81c0.104 0.353 0.256 0.8 0.457 1.343l0.679 1.782h-2.199l0.715-1.887c0.147-0.407 0.263-0.82 0.348-1.238z"></path>
</symbol>
<symbol id="icon-database" viewBox="0 0 32 32">
<path d="M16.014 22.082c-0.037 0-0.074 0-0.111 0-8.782 0-15.885-2.133-15.887-3.771l-0.016-6.433c0-0.010 0.004-0.019 0.004-0.027 1.446 0.686 3.145 1.002 4.161 1.191 3.157 0.587 7.327 0.911 11.738 0.911h0.111c4.439-0.005 8.633-0.337 11.813-0.934 1.017-0.191 2.71-0.509 4.157-1.191 0 0.003 0 0.009 0 0.009l0.017 6.433c0.002 1.645-7.153 3.8-15.987 3.812zM16.014 12.016c-0.037 0-0.074 0-0.111 0-8.782 0-15.885-1.946-15.887-3.584l-0.016-5.434c-0.003-1.644 7.156-2.987 15.99-2.998 0.039 0 0.076 0 0.115 0 8.779 0 15.877 1.32 15.879 2.958l0.017 5.434c0.002 1.644-7.153 3.612-15.987 3.624zM15.902 24.020h0.111c4.439-0.006 8.634-0.524 11.813-1.121 1.017-0.191 2.71-0.509 4.158-1.192l0.016 7.296c0.002 1.645-7.153 2.987-15.987 2.998-0.038 0-0.074 0-0.113 0-8.78 0-15.883-1.32-15.885-2.957l-0.015-7.315c1.446 0.687 3.146 1.003 4.164 1.192 3.157 0.588 7.326 1.099 11.738 1.099z"></path>
</symbol>
<symbol id="icon-shrink" viewBox="0 0 32 32">
<path d="M18 14h13l-5-5 6-6-3-3-6 6-5-5z"></path>
<path d="M18 18v13l5-5 6 6 3-3-6-6 5-5z"></path>
<path d="M14 18h-13l5 5-6 6 3 3 6-6 5 5z"></path>
<path d="M14 14v-13l-5 5-6-6-3 3 6 6-5 5z"></path>
</symbol>
<symbol id="icon-buymeacoffee" viewBox="0 0 32 32">
<path  d="M9.197 0l-1.621 3.732h-2.407v3.364h0.927l0.94 5.971h-1.473l1.947 10.973 1.251-0.013 1.256 7.973h11.891l0.083-0.533 1.173-7.44 1.184 0.013 1.947-10.975h-1.408l0.94-5.969h1.008v-3.363h-2.557l-1.623-3.733zM9.901 1.073h12.057l1.028 2.373h-14.117zM6.235 4.803h19.525v1.227h-19.525zM6.839 14.133h18.18l-1.568 8.827-7.532-0.080-7.515 0.080z"></path>
</symbol>
<symbol id="icon-treehouse" viewBox="0 0 32 32">
<path  d="M27.383 5.491c-1.075-0.604-2.789 0.371-3.828 2.18l-1.888 3.283c-0.287 0.548-0.455 1.197-0.455 1.886 0 0.88 0.275 1.697 0.744 2.367l-0.009-0.013 0.055 0.083c0.871 1.253 2.047 2.411 2.431 2.824 0.359 0.383 0.58 0.901 0.58 1.469 0 0.979-0.655 1.806-1.55 2.066l-0.015 0.004c-0.174 0.051-0.374 0.080-0.58 0.080-1.18 0-2.137-0.957-2.137-2.137 0-0.096 0.006-0.19 0.019-0.283l-0.001 0.011c0.060-0.467-0.089-1.236-0.765-1.985-0.675-0.751-2.053 0.667-2.499 2.147l-0.021 0.081c-0.445 1.459-0.728 2.733-0.643 2.857 0.049 0.080 0.096 0.16 0.14 0.243 0.178 0.328 0.283 0.719 0.283 1.134 0 1.333-1.081 2.414-2.414 2.414-0.918 0-1.716-0.512-2.124-1.267l-0.006-0.013c-0.179-0.328-0.284-0.719-0.284-1.134 0-0.917 0.513-1.714 1.267-2.121l0.013-0.006 0.161-0.081c0.087-0.040 0.347-0.648 0.564-1.376l0.401-1.316c0.025-0.063 0.044-0.143 0.060-0.224l1.196-4.253-1.276 2.613c-0.149-0.484-0.4-0.507-0.945-0.121-0.324 0.244-0.871 0.708-1.133 0.892-0.487 0.364-0.913 1.051-1.135 1.479-0.128 0.27-0.314 0.494-0.542 0.663l-0.005 0.003c-0.912 0.752-2.249 0.608-2.979-0.303-0.291-0.36-0.466-0.823-0.466-1.327 0-1.016 0.714-1.865 1.668-2.073l0.014-0.003c0.545-0.123 2.369-1.236 3.461-2.027 0.203-0.141 0.365-0.263 0.507-0.405l2.937-2.227-2.552 1.376c0 0-0.261-0.021-0.568 0.023-0.931 0.1-1.904 0.243-2.085 0.467-0.104 0.146-0.233 0.267-0.381 0.359l-0.006 0.003c-0.849 0.608-2.025 0.427-2.652-0.423-0.219-0.307-0.349-0.69-0.349-1.103 0-0.638 0.312-1.204 0.792-1.552l0.006-0.004c0.345-0.244 0.769-0.365 1.153-0.365 0.691 0.021 2.493 0.387 3.991 0.123l0.384-0.060c1.52-0.261 3.301-1.581 4.032-2.916l1.579-2.756c0.871-1.519 0.811-3.179-0.14-3.727l-1.764-1.013c-0.871-0.484-2.287-0.484-3.139 0l-11.811 6.621c-0.889 0.465-1.599 1.68-1.599 2.673v12.992c0 0.992 0.709 2.208 1.571 2.693l11.8 6.644c0.869 0.487 2.288 0.487 3.139 0l11.768-6.644c0.871-0.491 1.579-1.701 1.579-2.693v-13.013c0-0.992-0.708-2.204-1.559-2.693l-1.947-1.097z"></path>
</symbol>
</defs>
</svg>
